<?xml version="1.0" standalone="no"?>
<!DOCTYPE svg PUBLIC "-//W3C//DTD SVG 20010904//EN"
 "http://www.w3.org/TR/2001/REC-SVG-20010904/DTD/svg10.dtd">
<svg version="1.0" xmlns="http://www.w3.org/2000/svg"
 width="2560.000000pt" height="1052.000000pt" viewBox="0 0 2560.000000 1052.000000"
 preserveAspectRatio="xMidYMid meet">

<g transform="translate(0.000000,1052.000000) scale(0.100000,-0.100000)"
fill="#000000" stroke="none">
<path d="M5055 10509 c-863 -31 -1733 -287 -2455 -721 -337 -203 -438 -311
-428 -462 25 -400 858 -756 2013 -861 537 -48 1163 -48 1690 0 908 84 1681
299 2108 587 94 63 219 193 251 260 89 190 24 284 -344 498 -711 414 -1571
668 -2350 695 -85 3 -186 7 -225 8 -38 2 -155 0 -260 -4z"/>
<path d="M1738 9156 c-317 -288 -666 -690 -749 -864 -27 -55 -33 -78 -32 -132
5 -346 335 -690 945 -985 1244 -602 3460 -894 5188 -685 1141 139 1989 505
2349 1013 108 153 162 316 162 488 1 256 -83 403 -467 821 -75 81 -191 199
-259 262 l-123 116 16 -52 c63 -215 -188 -526 -646 -801 -960 -575 -2536 -914
-4117 -884 -877 17 -1456 151 -1886 438 -168 113 -302 267 -383 440 -67 143
-81 208 -81 384 0 130 3 159 23 219 30 89 73 175 128 254 24 34 42 62 39 62
-2 0 -50 -42 -107 -94z"/>
<path d="M9980 7515 c0 -312 -264 -660 -725 -957 -795 -512 -2257 -958 -3765
-1147 -481 -61 -790 -81 -1205 -81 -533 0 -936 37 -1410 131 -1158 229 -2013
713 -2300 1302 -73 151 -96 240 -102 402 -5 119 6 226 32 323 13 45 -62 -122
-124 -278 -115 -291 -222 -642 -251 -823 -9 -56 -8 -80 5 -130 53 -209 310
-501 642 -732 727 -505 1848 -861 3229 -1025 979 -116 2161 -137 3069 -54
1515 138 2623 561 3074 1173 81 110 164 280 198 406 24 90 27 117 27 270 0
138 -4 189 -22 272 -52 241 -162 559 -294 851 -39 86 -72 159 -74 161 -2 2 -4
-27 -4 -64z"/>
<path d="M20315 7440 c-536 -85 -872 -425 -935 -946 -39 -323 67 -630 332
-961 6 -8 -21 -29 -89 -69 -306 -183 -518 -400 -619 -634 -73 -168 -113 -408
-99 -600 42 -599 408 -1006 1030 -1142 88 -20 129 -22 345 -22 218 0 257 2
350 22 306 67 526 186 740 402 63 63 126 132 140 153 14 20 27 37 30 36 3 0
104 -110 224 -244 136 -152 233 -251 255 -262 32 -16 75 -18 427 -21 384 -3
391 -2 417 18 37 29 36 77 0 122 -16 18 -222 243 -460 500 l-432 468 68 117
c504 864 541 929 541 960 0 43 -28 70 -82 78 -24 4 -167 5 -318 3 -304 -3
-315 -5 -363 -70 -14 -18 -95 -157 -182 -308 -86 -151 -160 -279 -165 -283 -4
-5 -120 112 -256 260 -349 376 -340 366 -329 370 6 2 50 27 98 56 380 228 589
478 651 779 10 47 16 127 16 206 0 343 -122 605 -372 798 -115 89 -289 165
-462 200 -86 18 -416 27 -501 14z m316 -650 c163 -31 273 -145 302 -316 14
-82 -2 -186 -41 -258 -52 -98 -182 -208 -396 -336 l-89 -54 -44 50 c-187 211
-263 360 -263 521 0 276 234 449 531 393z m-12 -2178 l422 -453 -33 -46 c-54
-75 -177 -201 -244 -249 -128 -91 -251 -132 -424 -140 -144 -7 -233 10 -350
67 -208 103 -339 315 -340 550 0 237 100 429 304 583 92 69 218 147 232 144 6
-2 201 -207 433 -456z"/>
<path d="M13854 7349 c-16 -4 -41 -20 -54 -34 -16 -17 -243 -636 -746 -2036
-398 -1107 -724 -2020 -724 -2030 0 -32 23 -70 51 -85 22 -11 86 -14 316 -14
326 0 339 3 379 76 12 21 90 238 175 482 l153 442 851 0 852 0 153 -442 c84
-244 162 -460 173 -481 40 -73 34 -72 395 -75 l323 -3 29 30 c21 21 30 39 30
63 0 40 -1430 4020 -1458 4057 -41 55 -44 56 -472 58 -217 1 -409 -3 -426 -8z
m710 -1645 c163 -468 296 -854 296 -858 0 -3 -273 -6 -606 -6 -502 0 -605 2
-602 13 14 60 604 1715 609 1709 3 -4 140 -390 303 -858z"/>
<path d="M15765 7350 c-11 -4 -31 -20 -45 -35 l-25 -27 -3 -253 c-4 -288 2
-325 51 -355 31 -19 55 -20 625 -20 l592 0 0 -1705 c0 -1870 -4 -1757 60
-1790 26 -14 71 -15 335 -13 l305 3 27 28 28 27 5 1723 5 1722 603 5 604 5 29
33 29 32 0 278 c0 240 -2 281 -16 301 -38 53 39 51 -1636 50 -854 0 -1562 -4
-1573 -9z"/>
<path d="M22374 7346 c-63 -28 -64 -32 -64 -338 l0 -278 29 -32 29 -33 604 -5
603 -5 5 -1722 5 -1723 28 -27 27 -28 305 -3 c264 -2 309 -1 335 13 64 33 60
-80 60 1790 l0 1705 590 0 c632 0 633 0 660 49 6 12 10 128 10 303 l0 284 -31
30 -30 29 -1567 2 c-1305 2 -1572 0 -1598 -11z"/>
<path d="M10511 5530 c-1 -14 -16 -61 -34 -106 -190 -469 -982 -1015 -2115
-1461 -1147 -450 -2448 -736 -3662 -804 -405 -23 -1090 -3 -1440 42 -911 116
-1687 393 -2280 813 -452 320 -788 727 -936 1131 l-33 90 -1 -121 c0 -204 32
-550 70 -734 38 -189 155 -376 351 -564 566 -543 1478 -1000 2515 -1260 544
-137 1072 -218 1744 -268 238 -18 1354 -18 1620 0 1293 86 2223 298 2947 672
306 158 501 298 719 515 197 197 308 359 378 553 57 160 111 429 141 702 16
141 33 764 22 805 -4 17 -5 16 -6 -5z"/>
<path d="M10090 3241 c-71 -97 -297 -329 -417 -429 -774 -637 -2046 -1097
-3553 -1286 -501 -63 -798 -80 -1370 -81 -491 0 -593 4 -925 41 -1083 118
-2048 443 -2701 910 -197 141 -416 345 -528 494 -73 96 -74 95 -16 -15 188
-357 502 -700 898 -983 943 -673 2431 -1052 4127 -1052 1268 0 2514 324 3325
863 382 254 667 558 909 971 94 159 321 632 309 641 -2 1 -28 -32 -58 -74z"/>
<path d="M8607 1234 c-542 -335 -1376 -611 -2202 -728 -444 -63 -739 -80
-1297 -73 -519 6 -817 29 -1238 93 -630 97 -1213 272 -1678 504 -72 37 -132
65 -132 64 0 -1 39 -31 88 -66 1070 -784 2382 -1137 3694 -992 911 100 1807
450 2538 992 120 89 320 250 320 258 0 5 7 9 -93 -52z"/>
</g>
</svg>
