<?xml version="1.0" standalone="no"?>
<!DOCTYPE svg PUBLIC "-//W3C//DTD SVG 20010904//EN"
 "http://www.w3.org/TR/2001/REC-SVG-20010904/DTD/svg10.dtd">
<svg version="1.0" xmlns="http://www.w3.org/2000/svg"
 width="225" height="225" viewBox="0 0 225 225"
 preserveAspectRatio="xMidYMid meet">
<g>
  <rect width="225" height="225" style="fill:currentColor"/>
</g>
<g transform="translate(-10,245) scale(0.1,-0.1)"
fill="#000000" stroke="none">
<path d="M647 1973 c-4 -32 -25 -283 -47 -558 -22 -275 -43 -511 -47 -525 -5
-24 -6 -24 -18 10 -20 53 -18 138 5 189 11 24 20 55 20 70 l-1 26 -19 -24
c-11 -13 -30 -54 -41 -92 -20 -65 -20 -73 -6 -134 16 -75 10 -81 -50 -44 -45
28 -63 66 -63 137 0 100 27 154 131 258 40 41 60 68 57 80 -5 30 -158 -129
-193 -201 -40 -81 -46 -190 -16 -260 23 -51 95 -119 155 -146 l29 -13 -7 -84
c-7 -95 1 -117 37 -102 12 5 69 21 127 35 58 14 112 29 120 32 8 4 22 7 30 8
26 3 283 60 368 82 12 3 22 1 22 -5 0 -15 52 -72 66 -72 6 0 31 29 54 65 34
53 49 67 79 74 20 6 155 40 301 76 146 36 276 70 289 75 l23 11 -7 442 c-4
243 -10 445 -14 449 -4 5 -216 37 -471 73 -256 35 -562 78 -680 95 -118 16
-218 30 -221 30 -4 0 -9 -26 -12 -57z m199 -124 c60 -52 192 -163 292 -248
l181 -154 -44 -41 c-24 -23 -132 -142 -241 -266 -108 -124 -202 -228 -209
-232 -18 -11 -141 -36 -195 -40 -45 -3 -45 -3 -43 27 43 538 85 1038 89 1064
l5 33 27 -24 c15 -14 77 -67 138 -119z m239 92 c193 -27 474 -66 625 -87 151
-20 277 -39 279 -40 2 -2 -67 -82 -154 -179 l-157 -175 -163 0 -163 0 -108 91
c-60 51 -134 113 -164 139 -30 26 -122 104 -203 174 -82 69 -147 126 -145 126
2 0 161 -22 353 -49z m930 -556 l7 -390 -72 120 c-87 144 -183 285 -210 310
-11 10 -20 23 -20 28 0 9 81 103 197 227 23 25 51 58 63 73 12 15 23 27 25 25
1 -2 6 -178 10 -393z m-309 30 c12 -8 48 -54 81 -102 67 -97 225 -354 221
-358 -6 -4 -563 -142 -566 -140 -2 2 26 43 61 91 76 106 90 131 77 136 -23 7
-594 -12 -603 -21 -6 -6 -2 -20 12 -39 l20 -29 -56 -16 c-31 -9 -59 -15 -61
-12 -5 4 366 427 407 463 42 38 58 41 226 41 125 1 165 -2 181 -14z m-1091
-698 l40 -12 -49 -50 c-26 -27 -45 -42 -42 -32 3 10 6 39 6 63 0 24 1 44 3 44
1 0 20 -6 42 -13z m151 -32 c32 -4 65 -10 71 -14 7 -4 -43 -20 -111 -37 l-125
-31 42 49 c22 27 46 47 52 44 7 -2 38 -7 71 -11z"/>
</g>
</svg>
