<?xml version="1.0" standalone="yes"?>
<svg xmlns="http://www.w3.org/2000/svg" width="225" height="225">
<g>
  <rect width="225" height="225" style="fill:currentColor"/>
</g>
<g transform="translate(27, 50) scale(0.173)">
  <path fill="inherit" d="M265 0.424377C233.735 4.51721 205.185 7.29614 177 23.4275C125.008 53.1846 93.0761 106.811 71.3997 161C45.2279 226.427 31.3393 296.599 20.5756 366C13.6917 410.386 7.19407 455.216 3.91127 500C0.00611758 553.274 -3.69289 608.467 9.12963 661C15.2144 685.929 25.2224 711.985 46 728.331C90.2971 763.18 164.992 737.777 199.83 700.961C237.738 660.901 262.558 608.452 310 577.864C334.132 562.305 366.137 558.743 394 554.87C455.869 546.269 516.068 546.434 578 553.845C607.078 557.325 642.761 560.658 668 576.695C731.306 616.921 754.63 699.928 824 731.691C836.664 737.49 850.259 740.497 864 742.282C876.241 743.872 888.761 744.477 901 742.561C958.985 733.482 974.46 664.23 977.911 615C978.674 604.101 978.009 592.82 979.286 582C981.307 564.864 979.267 546.202 978.089 529C975.959 497.891 972.867 467.005 969.155 436C959.563 355.882 946.731 274.89 921.67 198C907.983 156.007 890.894 113.212 863.575 78C821.072 23.2178 751.279 -12.0757 681 3.42438C660.778 7.88428 642.53 17.0497 625 27.811C593.291 47.2766 566.196 73.8786 532 89.3055C519.152 95.1017 502.434 102.051 488 100.826C404.67 93.7542 353.266 -11.1305 265 0.424377z"/>
  <g fill="currentColor">
    <path d="M258 196.425C239.374 198.961 222.059 204.968 206 214.811C192.381 223.158 180.886 234.216 171.378 247C162.637 258.753 156.342 272.04 152.025 286C124.699 374.373 203.383 460.42 293 447.715C310.092 445.291 326.312 438.937 341 429.997C354.349 421.872 365.426 411.277 374.986 399C442.244 312.625 366.273 181.686 258 196.425z"/>
    <path d="M698 200L698 300L598 300L598 347L698 347L698 447L746 447L746 347L846 347L846 300L746 300L746 200L698 200z"/>
  </g>
  <g fill="inherit">
    <path d="M265 250.428C254.403 251.946 244.119 255.397 235 261.066C199.143 283.356 190.654 335.292 217.465 368C233.894 388.043 259.522 397.03 285 393.711C294.401 392.486 304.007 388.79 312 383.771C375.098 344.148 340.496 239.613 265 250.428z"/>
  </g>
</g>
</svg>
