<?xml version="1.0" standalone="no"?>
<!DOCTYPE svg PUBLIC "-//W3C//DTD SVG 20010904//EN"
 "http://www.w3.org/TR/2001/REC-SVG-20010904/DTD/svg10.dtd">
<svg version="1.0" xmlns="http://www.w3.org/2000/svg"
 width="26" height="37" viewBox="0 0 26 37"
 preserveAspectRatio="xMidYMid meet">

<g transform="translate(0,37) scale(0.1,-0.1)"
fill="#ce8b2c" stroke="none">
<path d="M71 352 c-37 -20 -71 -72 -71 -109 0 -35 17 -69 59 -123 22 -28 45
-66 52 -85 7 -19 16 -35 19 -35 3 0 11 15 18 33 7 18 33 61 58 95 55 74 64
120 36 171 -21 38 -73 71 -112 71 -14 0 -41 -8 -59 -18z"/>
</g>
</svg>
