<?xml version="1.0" standalone="no"?>
<!DOCTYPE svg PUBLIC "-//W3C//DTD SVG 20010904//EN"
 "http://www.w3.org/TR/2001/REC-SVG-20010904/DTD/svg10.dtd">
<svg version="1.0" xmlns="http://www.w3.org/2000/svg"
 width="225" height="225" viewBox="0 0 225 225"
 preserveAspectRatio="xMidYMid meet">
<rect width="225" height="225" style="fill:currentColor" />
<g transform="translate(0,225) scale(0.1,-0.1)"
fill="inherit" stroke="none">
<path d="M1105 1870 c-56 -8 -210 -24 -485 -54 l-115 -12 0 -74 c0 -41 6 -217
13 -390 11 -269 16 -318 30 -334 23 -25 331 -299 348 -309 13 -8 85 12 484
129 107 31 205 59 218 62 13 2 27 14 32 26 5 11 13 138 19 281 6 143 14 328
17 412 l6 152 -38 10 c-165 43 -443 111 -455 110 -8 -1 -41 -5 -74 -9z m250
-79 c83 -21 143 -41 135 -44 -8 -3 -60 -10 -115 -17 -166 -20 -234 -28 -361
-45 l-122 -16 -108 42 c-124 47 -147 58 -124 59 8 1 121 14 250 29 129 16 249
29 265 29 17 1 98 -16 180 -37z m261 -233 c-3 -84 -11 -256 -16 -382 -5 -127
-13 -233 -18 -238 -4 -4 -69 -25 -143 -47 -73 -21 -216 -62 -317 -91 -100 -29
-184 -51 -187 -49 -8 9 -22 864 -14 870 5 3 109 18 232 33 122 16 260 34 307
41 47 7 103 13 124 14 l39 1 -7 -152z"/>
<path d="M520 905 c-245 -79 -302 -220 -131 -322 110 -66 323 -118 535 -130
88 -5 106 -9 92 -18 -19 -14 -20 -27 -5 -42 8 -8 26 -2 65 21 71 41 72 65 4
107 -57 35 -62 36 -75 14 -7 -11 -6 -18 5 -25 23 -15 -108 -12 -227 5 -213 30
-364 84 -422 150 -38 43 -38 55 -6 94 37 43 85 70 183 102 67 21 87 32 87 46
0 26 -20 25 -105 -2z"/>
<path d="M1667 893 c-18 -17 -2 -32 54 -52 64 -24 149 -94 149 -124 0 -29 -61
-86 -124 -116 -105 -51 -347 -100 -487 -101 -58 0 -76 -12 -59 -40 17 -28 328
14 479 65 274 91 310 243 81 349 -56 26 -81 31 -93 19z"/>
</g>
</svg>
