<?xml version="1.0" standalone="no"?>
<!DOCTYPE svg PUBLIC "-//W3C//DTD SVG 20010904//EN" "http://www.w3.org/TR/2001/REC-SVG-20010904/DTD/svg10.dtd">
<svg version="1.0" xmlns="http://www.w3.org/2000/svg" width="225" height="225" viewBox="0 0 225 225" preserveAspectRatio="xMidYMid meet">
  <g>
    <rect width="225" height="225" style="fill:inherit" />
    <g transform="translate(0,225) scale(0.0325,-0.0325)" fill="currentColor" stroke="none">
      <path d="M0 3500 l0 -3500 3500 0 3500 0 0 3500 0 3500 -3500 0 -3500 0 0
      -3500z m4416 3019 c18 -20 19 -53 22 -970 l2 -949 999 -2 c966 -3 1000 -4
      1020 -22 12 -11 21 -29 21 -41 0 -12 -9 -30 -21 -41 -20 -18 -54 -19 -1020
      -22 l-999 -2 0 -895 0 -895 984 -2 c952 -3 985 -4 1005 -22 27 -24 27 -58 0
      -82 -20 -18 -53 -19 -1005 -22 l-984 -2 -2 -949 c-3 -917 -4 -950 -22 -970
      -24 -27 -58 -27 -82 0 -18 20 -19 53 -22 970 l-2 949 -925 0 -925 0 -2 -939
      c-3 -907 -4 -940 -22 -960 -24 -27 -58 -27 -82 0 -18 20 -19 53 -22 960 l-2
      939 -979 2 c-947 3 -980 4 -1000 22 -27 24 -27 58 0 82 20 18 53 19 1000 22
      l979 2 0 895 0 895 -979 2 c-947 3 -980 4 -1000 22 -27 24 -27 58 0 82 20 18
      53 19 1000 22 l979 2 2 934 c3 902 4 935 22 955 24 27 58 27 82 0 18 -20 19
      -53 22 -955 l2 -934 925 0 925 0 2 949 c3 917 4 950 22 970 11 12 29 21 41 21
      12 0 30 -9 41 -21z m-2821 -335 c33 -8 98 -34 145 -57 69 -33 102 -58 175
      -132 74 -73 99 -106 132 -175 57 -117 76 -194 76 -315 0 -121 -19 -198 -76
      -315 -33 -69 -58 -102 -132 -175 -73 -74 -106 -99 -175 -132 -117 -57 -194
      -76 -315 -76 -192 0 -347 65 -486 203 -202 200 -265 462 -175 722 36 104 82
      174 171 263 89 89 159 135 264 171 131 46 262 52 396 18z m4463 -1868 c61 -31
      88 -90 70 -153 -8 -31 -64 -92 -284 -313 -151 -152 -274 -280 -274 -285 0 -6
      113 -123 250 -260 263 -263 278 -282 259 -347 -12 -42 -55 -86 -96 -97 -71
      -20 -91 -6 -354 255 -135 134 -251 244 -259 244 -8 0 -120 -105 -250 -234
      -186 -186 -243 -236 -273 -244 -89 -25 -167 40 -167 140 0 42 2 44 245 288
      135 135 245 250 245 255 0 6 -99 109 -221 230 -271 270 -299 303 -299 356 0
      82 57 139 140 139 l44 0 261 -260 c143 -143 267 -260 275 -260 8 0 141 126
      295 280 280 279 281 280 323 280 24 0 55 -6 70 -14z m-4938 -2211 c151 -151
      282 -275 290 -275 8 0 132 117 275 260 259 258 261 260 303 260 100 0 165 -78
      140 -167 -8 -30 -61 -89 -264 -293 -140 -141 -254 -260 -254 -265 0 -6 108
      -118 240 -250 253 -253 268 -273 249 -337 -12 -42 -55 -86 -96 -97 -71 -20
      -91 -5 -344 245 -129 129 -242 234 -249 234 -8 0 -127 -112 -265 -249 -199
      -198 -258 -251 -288 -259 -89 -25 -167 40 -167 140 0 42 2 44 260 303 143 143
      260 265 260 270 0 6 -106 116 -236 245 -287 286 -314 318 -314 371 0 82 57
      139 140 139 l44 0 276 -275z m2445 219 c33 -8 98 -34 145 -57 69 -33 102 -58
      175 -132 74 -73 99 -106 132 -175 57 -117 76 -194 76 -315 0 -121 -19 -198
      -76 -315 -33 -69 -58 -102 -132 -175 -73 -74 -106 -99 -175 -132 -117 -57
      -194 -76 -315 -76 -192 0 -347 65 -486 203 -202 200 -265 462 -175 722 36 104
      82 174 171 263 89 89 159 135 264 171 131 46 262 52 396 18z"/>
      <path d="M2460 3575 l0 -895 925 0 925 0 0 895 0 895 -925 0 -925 0 0 -895z
      m630 460 c151 -151 282 -275 290 -275 8 0 139 124 290 275 275 274 276 275
      318 275 100 0 165 -78 140 -167 -8 -31 -63 -92 -279 -308 -148 -149 -269 -275
      -269 -280 0 -6 108 -118 240 -250 253 -253 268 -273 249 -337 -12 -42 -55 -86
      -96 -97 -71 -20 -91 -5 -344 245 -129 129 -241 234 -249 234 -8 0 -116 -101
      -240 -224 -178 -177 -233 -226 -263 -234 -89 -25 -167 40 -167 140 0 42 2 44
      235 278 129 129 235 240 235 245 0 6 -106 116 -236 245 -287 286 -314 318
      -314 371 0 82 57 139 140 139 l44 0 276 -275z"/>
      <path d="M1295 5912 c-120 -41 -205 -117 -258 -230 -25 -54 -32 -83 -35 -153
      -7 -138 37 -248 134 -341 125 -119 346 -142 505 -54 51 29 127 105 157 159 64
      113 70 272 13 392 -51 111 -147 195 -261 229 -71 21 -191 20 -255 -2z"/>
      <path d="M3265 2052 c-120 -41 -205 -117 -258 -230 -25 -54 -32 -83 -35 -153
      -7 -138 37 -248 134 -341 125 -119 346 -142 505 -54 51 29 127 105 157 159 64
      113 70 272 13 392 -51 111 -147 195 -261 229 -71 21 -191 20 -255 -2z"/>
    </g>
  </g>
</svg>
